<svg width="30" height="30" viewBox="0 0 30 30" fill="none" xmlns="http://www.w3.org/2000/svg">
<path d="M21.4351 2.00541L17.8373 2C13.7953 2 11.1832 4.51147 11.1832 8.39863V11.3488H7.56572C7.25313 11.3488 7 11.5863 7 11.8793V16.1538C7 16.4467 7.25342 16.6839 7.56572 16.6839H11.1832V27.4698C11.1832 27.7628 11.4363 28 11.7489 28H16.4686C16.7812 28 17.0343 27.7625 17.0343 27.4698V16.6839H21.264C21.5766 16.6839 21.8297 16.4467 21.8297 16.1538L21.8314 11.8793C21.8314 11.7386 21.7717 11.6039 21.6658 11.5044C21.5598 11.4048 21.4155 11.3488 21.2654 11.3488H17.0343V8.84791C17.0343 7.64587 17.34 7.03565 19.0109 7.03565L21.4346 7.03484C21.7469 7.03484 22 6.79735 22 6.50469V2.53556C22 2.24317 21.7472 2.00595 21.4351 2.00541Z" fill="white" fill-opacity="0.6"/>
</svg>
