<svg width="30" height="30" viewBox="0 0 30 30" fill="none" xmlns="http://www.w3.org/2000/svg">
<path d="M27.8621 20.6435C27.8306 20.5795 27.8013 20.5264 27.774 20.4838C27.3229 19.7171 26.4609 18.7759 25.1884 17.6601L25.1615 17.6346L25.1481 17.6221L25.1345 17.6092H25.1208C24.5433 17.0896 24.1776 16.7403 24.0245 16.5614C23.7442 16.2207 23.6815 15.8759 23.8346 15.5264C23.9428 15.2624 24.3492 14.7048 25.053 13.853C25.4231 13.4015 25.7163 13.0397 25.9328 12.7671C27.4942 10.808 28.1711 9.55614 27.9634 9.01098L27.8828 8.88358C27.8286 8.80688 27.6887 8.73671 27.4634 8.67272C27.2375 8.60887 26.9488 8.59831 26.5967 8.64086L22.6981 8.66628C22.635 8.64516 22.5448 8.64713 22.4273 8.67272C22.31 8.69832 22.2513 8.71116 22.2513 8.71116L22.1834 8.74316L22.1295 8.7816C22.0844 8.80701 22.0348 8.85172 21.9806 8.91562C21.9267 8.97929 21.8816 9.05402 21.8455 9.13918C21.4211 10.1698 20.9385 11.128 20.3969 12.0137C20.063 12.5419 19.7563 12.9996 19.4762 13.3872C19.1965 13.7746 18.9619 14.06 18.7725 14.243C18.5828 14.4262 18.4117 14.5729 18.2579 14.6837C18.1045 14.7946 17.9873 14.8415 17.9062 14.8243C17.8249 14.8072 17.7483 14.7902 17.6758 14.7732C17.5495 14.6965 17.448 14.5922 17.3714 14.4602C17.2945 14.3282 17.2427 14.162 17.2156 13.9619C17.1887 13.7616 17.1728 13.5893 17.1682 13.4444C17.164 13.2998 17.1659 13.0951 17.1751 12.8311C17.1845 12.567 17.1887 12.3882 17.1887 12.2945C17.1887 11.9708 17.1954 11.6195 17.2088 11.2405C17.2225 10.8615 17.2335 10.5612 17.2428 10.3399C17.252 10.1185 17.2562 9.88419 17.2562 9.63718C17.2562 9.39017 17.2403 9.19646 17.2088 9.05586C17.1777 8.91544 17.13 8.77914 17.067 8.64699C17.0037 8.51499 16.9111 8.41287 16.7895 8.34038C16.6677 8.26798 16.5163 8.21052 16.3361 8.16783C15.8577 8.06567 15.2486 8.01041 14.5084 8.00182C12.8299 7.98481 11.7513 8.08711 11.273 8.30857C11.0835 8.40213 10.912 8.52998 10.7587 8.6917C10.5962 8.87915 10.5735 8.98144 10.6908 8.99827C11.2324 9.07483 11.6158 9.25798 11.8414 9.54755L11.9227 9.70099C11.986 9.8117 12.0491 10.0077 12.1124 10.2887C12.1755 10.5697 12.2162 10.8806 12.2341 11.2211C12.2792 11.843 12.2792 12.3753 12.2341 12.8181C12.1889 13.2611 12.1463 13.606 12.1055 13.853C12.0648 14.1 12.0039 14.3002 11.9227 14.4535C11.8414 14.6068 11.7873 14.7005 11.7602 14.7345C11.7331 14.7685 11.7106 14.7899 11.6926 14.7983C11.5753 14.8407 11.4533 14.8624 11.3271 14.8624C11.2006 14.8624 11.0473 14.8027 10.8668 14.6834C10.6864 14.5641 10.4992 14.4002 10.3051 14.1915C10.111 13.9827 9.89218 13.691 9.64843 13.3163C9.40486 12.9416 9.15214 12.4987 8.89042 11.9877L8.67388 11.6171C8.53851 11.3787 8.35359 11.0315 8.11894 10.5759C7.88415 10.1202 7.67661 9.67933 7.4962 9.25346C7.42409 9.07461 7.31575 8.93844 7.17137 8.84474L7.10361 8.8063C7.05857 8.77229 6.98626 8.73618 6.88707 8.69769C6.78774 8.65926 6.68409 8.63169 6.57571 8.61473L2.86654 8.64015C2.48751 8.64015 2.23034 8.72119 2.09492 8.88304L2.04073 8.9596C2.01366 9.00225 2 9.07036 2 9.1641C2 9.25781 2.02707 9.37281 2.08127 9.50898C2.62274 10.71 3.21157 11.8683 3.84778 12.9841C4.48398 14.0998 5.03683 14.9986 5.50599 15.6795C5.97525 16.361 6.45357 17.0042 6.94094 17.6087C7.42831 18.2135 7.75091 18.6011 7.90875 18.7713C8.06679 18.9419 8.19092 19.0694 8.28115 19.1546L8.61964 19.4612C8.83622 19.6656 9.15428 19.9105 9.57394 20.1957C9.9937 20.4812 10.4584 20.7622 10.9683 21.0392C11.4783 21.3158 12.0716 21.5415 12.7485 21.7161C13.4253 21.8908 14.0841 21.961 14.7249 21.9271H16.2817C16.5975 21.9014 16.8367 21.8077 16.9992 21.646L17.0531 21.5819C17.0893 21.5311 17.1232 21.4521 17.1545 21.3459C17.1862 21.2394 17.2019 21.1221 17.2019 20.9945C17.1927 20.6284 17.2222 20.2984 17.2897 20.0045C17.3572 19.7108 17.4341 19.4894 17.5201 19.3402C17.6061 19.1912 17.7031 19.0655 17.8111 18.9635C17.9193 18.8614 17.9964 18.7995 18.0416 18.7782C18.0865 18.7567 18.1224 18.7422 18.1495 18.7335C18.3661 18.6654 18.621 18.7313 18.9146 18.9317C19.2079 19.1318 19.4831 19.379 19.7404 19.6727C19.9977 19.9667 20.3067 20.2965 20.6676 20.6627C21.0288 21.029 21.3446 21.3013 21.6152 21.4804L21.8858 21.6337C22.0666 21.736 22.3012 21.8297 22.5901 21.9149C22.8784 22 23.131 22.0213 23.3479 21.9787L26.8133 21.9277C27.1561 21.9277 27.4228 21.8742 27.612 21.7679C27.8015 21.6614 27.9141 21.5441 27.9504 21.4166C27.9867 21.2888 27.9886 21.144 27.9573 20.982C27.9252 20.8204 27.8936 20.7074 27.8621 20.6435Z" fill="white" fill-opacity="0.6"/>
</svg>
