<svg width="30" height="30" viewBox="0 0 30 30" fill="none" xmlns="http://www.w3.org/2000/svg">
<g opacity="0.6">
<path d="M19.875 2H10.125C5.63838 2 2 5.63838 2 10.125V19.875C2 24.3616 5.63838 28 10.125 28H19.875C24.3616 28 28 24.3616 28 19.875V10.125C28 5.63838 24.3616 2 19.875 2ZM25.5625 19.875C25.5625 23.0113 23.0113 25.5625 19.875 25.5625H10.125C6.98875 25.5625 4.4375 23.0113 4.4375 19.875V10.125C4.4375 6.98875 6.98875 4.4375 10.125 4.4375H19.875C23.0113 4.4375 25.5625 6.98875 25.5625 10.125V19.875Z" fill="white"/>
</g>
<g opacity="0.6">
<path d="M15 8.5C11.4104 8.5 8.5 11.4104 8.5 15C8.5 18.5896 11.4104 21.5 15 21.5C18.5896 21.5 21.5 18.5896 21.5 15C21.5 11.4104 18.5896 8.5 15 8.5ZM15 19.0625C12.7607 19.0625 10.9375 17.2393 10.9375 15C10.9375 12.7591 12.7607 10.9375 15 10.9375C17.2393 10.9375 19.0625 12.7591 19.0625 15C19.0625 17.2393 17.2393 19.0625 15 19.0625Z" fill="white"/>
</g>
<g opacity="0.6">
<path d="M21.9854 8.87891C22.4637 8.87891 22.8515 8.49114 22.8515 8.01279C22.8515 7.53444 22.4637 7.14667 21.9854 7.14667C21.507 7.14667 21.1193 7.53444 21.1193 8.01279C21.1193 8.49114 21.507 8.87891 21.9854 8.87891Z" fill="white"/>
</g>
</svg>
